<?xml version="1.0" standalone="no"?>
<!DOCTYPE svg PUBLIC "-//W3C//DTD SVG 20010904//EN"
 "http://www.w3.org/TR/2001/REC-SVG-20010904/DTD/svg10.dtd">
<svg version="1.0" xmlns="http://www.w3.org/2000/svg"
 width="200.000000pt" height="200.000000pt" viewBox="0 0 200.000000 200.000000"
 preserveAspectRatio="xMidYMid meet">
<metadata>
Created by potrace 1.14, written by Peter Selinger 2001-2017
</metadata>
<g transform="translate(0.000000,200.000000) scale(0.100000,-0.100000)"
fill="#000000" stroke="none">
<path d="M741 1868 c-17 -27 -54 -144 -67 -212 -19 -101 -26 -136 -30 -166
-11 -79 -14 -73 56 -88 104 -21 380 -24 475 -6 44 9 82 17 84 19 1 2 -4 39
-13 82 -8 43 -17 89 -20 103 -20 112 -71 273 -91 290 -20 16 -50 4 -102 -43
-80 -71 -106 -73 -170 -11 -78 75 -94 79 -122 32z"/>
<path d="M511 1254 c-218 -56 -322 -96 -334 -128 -14 -37 70 -75 253 -114 52
-12 116 -23 143 -26 26 -3 68 -9 95 -12 111 -13 414 -20 472 -10 14 3 59 7
100 10 92 7 273 39 361 65 227 65 193 114 -141 203 -129 34 -157 37 -203 21
-133 -46 -426 -48 -583 -3 -38 11 -69 20 -69 19 0 0 -42 -11 -94 -25z"/>
<path d="M377 931 c-18 -14 -37 -30 -43 -36 -33 -31 -140 -122 -155 -133 -29
-20 -23 -27 24 -29 49 -2 187 -33 305 -69 l83 -25 -28 -22 c-15 -12 -37 -31
-49 -42 -11 -11 -35 -32 -53 -47 l-33 -26 33 -10 c62 -18 139 -52 301 -132 88
-45 163 -79 165 -77 2 3 11 29 19 59 l16 55 -119 119 c-122 123 -190 214 -254
343 -21 41 -44 76 -51 77 -130 23 -128 23 -161 -5z"/>
<path d="M1508 955 c-2 -2 -30 -7 -63 -10 -33 -4 -61 -9 -63 -10 -2 -2 -5 -18
-6 -37 -9 -95 -14 -104 -108 -183 -201 -171 -328 -399 -316 -564 l3 -45 37 60
c66 107 186 214 307 274 70 35 158 67 205 76 53 9 48 16 -45 60 l-93 43 48 20
c75 33 224 71 339 87 21 3 46 7 55 9 9 2 23 4 31 4 13 1 -24 29 -225 169 -54
38 -96 57 -106 47z"/>
<path d="M630 896 c0 -66 90 -125 171 -111 39 7 89 32 89 45 0 19 44 50 71 50
19 0 36 -10 56 -35 36 -43 88 -65 141 -60 80 8 132 53 132 115 0 34 4 33 -95
13 -25 -5 -455 -4 -464 1 -3 2 -27 7 -53 10 l-48 7 0 -35z"/>
</g>
</svg>
